<?xml version='1.0' encoding='iso-8859-1'?>
<!DOCTYPE svg PUBLIC '-//W3C//DTD SVG 1.1//EN' 'http://www.w3.org/Graphics/SVG/1.1/DTD/svg11.dtd'>
<!-- Uploaded to: SVG Repo, www.svgrepo.com, Generator: SVG Repo Mixer Tools -->
<svg fill="#000000" height="800px" width="800px" version="1.1" xmlns="http://www.w3.org/2000/svg" viewBox="0 0 512 512" xmlns:xlink="http://www.w3.org/1999/xlink" enable-background="new 0 0 512 512">
  <path d="m464,384h-47.914c1.773-171.711 31.336-331.406 31.641-333.055 0.875-4.672-0.375-9.5-3.414-13.164-3.04-3.664-7.555-5.781-12.313-5.781h-352c-4.758,0-9.273,2.117-12.313,5.781-3.039,3.664-4.289,8.492-3.414,13.164 0.305,1.649 29.868,161.344 31.641,333.055h-47.914c-26.469,0-48,21.531-48,48 0,26.469 21.531,48 48,48h416c26.469,0 48-21.531 48-48 0-26.469-21.531-48-48-48zm-160-80h82.785c-0.578,10.545-1.078,21.212-1.488,32h-81.297v-32zm109-240c-5.73,34.739-17.588,113.807-24.227,208h-84.773c0-8.836-7.164-16-16-16h-64c-8.836,0-16,7.164-16,16h-84.773c-6.639-94.193-18.497-173.261-24.227-208h314zm-141,224v64h-32v-64h32zm-64,48h-81.297c-0.41-10.788-0.91-21.455-1.488-32h82.785v32zm256,112h-416c-8.82,0-16-7.18-16-16s7.18-16 16-16h64c8.836,0 16-7.164 16-16 0-10.714-0.143-21.378-0.354-32h80.354c0,8.836 7.164,16 16,16h64c8.836,0 16-7.164 16-16h80.353c-0.211,10.622-0.353,21.286-0.353,32 0,8.836 7.164,16 16,16h64c8.82,0 16,7.18 16,16s-7.18,16-16,16z"/>
</svg>